<?xml version="1.0" encoding="utf-8"?>
<!-- Uploaded to: SVG Repo, www.svgrepo.com, Generator: SVG Repo Mixer Tools -->
<svg fill="#000000" version="1.1" id="Layer_1" xmlns="http://www.w3.org/2000/svg" xmlns:xlink="http://www.w3.org/1999/xlink" 
	 width="800px" height="800px" viewBox="0 0 153 256" enable-background="new 0 0 153 256" xml:space="preserve">
<path d="M126.609,175.108L126.609,175.108c-1.009-2.882-3.602-4.683-6.628-4.683h-4.575V87.571c0-8.436-6.694-15.13-15.13-15.13
	H18.862c-8.955,0-16.571,7.615-16.571,16.571v131.846c0,8.574,7.889,15.85,16.391,15.85l82.287,0c0.87,0,1.636,0.709,1.571,1.577
	c-0.068,0.912-0.831,1.305-1.724,1.305H68.034L93.071,254h57.638L126.609,175.108z M59.965,229.648
	c-2.305,0-4.034-1.729-4.035-4.033c-0.001-2.194,1.842-4.036,4.036-4.036c2.305,0.001,4.033,1.73,4.033,4.035
	C63.928,227.919,62.271,229.648,59.965,229.648z M104.598,170.425H90.441c-3.819,0-7.061,3.386-7.061,7.205l0,0
	c0,3.818,3.242,7.205,7.061,7.205h14.265v30.26H13.819V93.335h90.78V170.425z M101.102,29.618c-0.002-0.003-0.003-0.005-0.005-0.008
	c-0.027-3.027-1.052-5.698-2.668-8.009c-4.591-6.133-10.589-11.146-17.51-14.573C75.323,3.846,68.462,2,59.433,2
	C43.46,2,29.326,9.727,20.437,21.601c-1.603,2.259-2.623,5.001-2.665,8.003c-0.001,0.002-0.008,0.013-0.008,0.014
	c0,0,0.007,0.001,0.007,0.001c-0.001,0.06-0.007,0.117-0.007,0.177c0,3.077,1.036,5.887,2.673,8.128
	c8.889,11.908,23.023,19.635,38.996,19.635s30.107-7.727,38.996-19.635c1.637-2.308,2.673-5.118,2.673-8.195
	c0-0.038-0.004-0.073-0.005-0.111C101.098,29.618,101.103,29.618,101.102,29.618z M26.185,34.044
	c-0.902-1.237-1.437-2.743-1.437-4.248c0-0.036,0.009-0.073,0.01-0.109c3.143,0.013,7.174,0.022,11.743,0.029
	c0,0.027-0.002,0.053-0.002,0.08c0,7.724,3.796,14.508,9.586,18.661C38.256,45.8,31.324,40.838,26.185,34.044z M94.119,29.83
	c0,1.84-0.802,3.345-1.437,4.215c-5.151,6.81-12.132,11.779-19.983,14.431c5.836-4.177,9.669-11.007,9.669-18.679
	c0-0.029-0.002-0.057-0.002-0.086c4.57-0.008,8.601-0.018,11.745-0.03C94.112,29.731,94.119,29.779,94.119,29.83z"/>
</svg>